Format                                   : MPEG-4
Format profile                           : Base Media
Codec ID                                 : isom
File size                                : 6.14 MiB
Duration                                 : 3mn 43s
Overall bit rate                         : 231 Kbps
Encoded date                             : UTC 2012-06-14 00:16:03
Tagged date                              : UTC 2012-06-14 00:16:03
Writing application                      : Lavf53.24.2

Video
ID                                       : 1
Format                                   : AVC
Format/Info                              : Advanced Video Codec
Format profile                           : High@L3.0
Format settings, CABAC                   : No
Format settings, ReFrames                : 4 frames
Codec ID                                 : avc1
Codec ID/Info                            : Advanced Video Coding
Duration                                 : 3mn 42s
Bit rate                                 : 180 Kbps
Width                                    : 320 pixels
Height                                   : 192 pixels
Display aspect ratio                     : 16:9
Frame rate mode                          : Constant
Frame rate                               : 23.976 fps
Color space                              : YUV
Chroma subsampling                       : 4:2:0
Bit depth                                : 8 bits
Scan type                                : Progressive
Bits/(Pixel*Frame)                       : 0.122
Stream size                              : 4.77 MiB (78%)
Writing library                          : x264 core 124

Audio
ID                                       : 2
Format                                   : AAC
Format/Info                              : Advanced Audio Codec
Format profile                           : HE-AACv2 / HE-AAC / LC
Codec ID                                 : 40
Duration                                 : 3mn 43s
Duration_LastFrame                       : -12ms
Bit rate mode                            : Constant
Bit rate                                 : 48.0 Kbps
Channel(s)                               : 2 channels / 1 channel / 1 channel
Channel positions                        : Front: L R / Front: C / Front: C
Sampling rate                            : 44.1 KHz / 44.1 KHz / 22.05 KHz
Compression mode                         : Lossy
Delay relative to video                  : -2s 2ms
Stream size                              : 1.25 MiB (20%)
